<?xml version="1.0" encoding="UTF-8"?><svg id="Layer_1" xmlns="http://www.w3.org/2000/svg" viewBox="0 0 1920 1080"><defs><style>.cls-1{fill:#346c70;}.cls-2{fill:#513f3f;}.cls-3{fill:#104445;}.cls-4{fill:#324242;}.cls-5{fill:#7e535d;}</style></defs><rect class="cls-3" x="399" y="-.04" width="1122" height="30.04"/><path class="cls-1" d="m402,55.67H0v-6.42h386.33L438.53-.04h13.87l-28.52,30.04h-1.3c-4.03,0-7.91,1.56-10.81,4.36l-15.45,14.89,5.67,6.42Z"/><polygon class="cls-4" points="386.33 49.25 0 49.25 0 0 439.22 0 386.33 49.25"/><path class="cls-5" d="m1519.33,55.67h402v-6.42h-386.33S1482.8-.04,1482.8-.04h-13.87s28.52,30.04,28.52,30.04h1.3c4.03,0,7.91,1.56,10.81,4.36l15.45,14.89-5.67,6.42Z"/><polygon class="cls-2" points="1535 49.25 1921.33 49.25 1921.33 0 1482.11 0 1535 49.25"/></svg>