<?xml version="1.0" encoding="UTF-8"?><svg id="b" xmlns="http://www.w3.org/2000/svg" viewBox="0 0 446.32 424.06"><defs><style>.d{fill:#fff;}</style></defs><g id="c"><circle class="d" cx="222.42" cy="91" r="91"/><path class="d" d="m312.42,86l-20,56c13,3,37,34,41,46h58c-3-32-45-89-79-102Z"/><circle class="d" cx="355.31" cy="322.79" r="91"/><path class="d" d="m312.69,402.22l-37.38-46.25c-9.33,9.53-48.3,13.87-60.62,11.03l-30.22,49.51c28.88,14.11,99.41,7.96,128.22-14.29Z"/><circle class="d" cx="91.02" cy="321.57" r="91"/><path class="d" d="m41.68,246.13l58.5-10.69c-3.9-12.76,10.94-49.04,19.33-58.51l-29.01-50.23c-26.21,18.6-54.57,83.48-48.82,119.42Z"/></g></svg>